<mxfile host="app.diagrams.net" agent="Mozilla/5.0 (Windows NT 10.0; Win64; x64) AppleWebKit/537.36 (KHTML, like Gecko) Chrome/129.0.0.0 Safari/537.36 Edg/129.0.0.0" version="24.7.17">
  <diagram name="Trang-1" id="tAwK7vEB_AXHHvVhF-Iv">
    <mxGraphModel dx="71" dy="43" grid="1" gridSize="10" guides="1" tooltips="1" connect="1" arrows="1" fold="1" page="1" pageScale="1" pageWidth="827" pageHeight="1169" math="0" shadow="0">
      <root>
        <mxCell id="0" />
        <mxCell id="1" parent="0" />
        <mxCell id="p4qgPqZC_pqW0kyotKTF-17" value="" style="rounded=0;whiteSpace=wrap;html=1;direction=south;" vertex="1" parent="1">
          <mxGeometry x="200" y="720" width="90" height="120" as="geometry" />
        </mxCell>
        <mxCell id="p4qgPqZC_pqW0kyotKTF-10" style="edgeStyle=orthogonalEdgeStyle;rounded=0;orthogonalLoop=1;jettySize=auto;html=1;entryX=0.5;entryY=0;entryDx=0;entryDy=0;fontFamily=Times New Roman;fontSize=13;" edge="1" parent="1" source="p4qgPqZC_pqW0kyotKTF-1" target="p4qgPqZC_pqW0kyotKTF-2">
          <mxGeometry relative="1" as="geometry" />
        </mxCell>
        <mxCell id="p4qgPqZC_pqW0kyotKTF-1" value="&lt;p align=&quot;center&quot; class=&quot;MsoNormal&quot; style=&quot;font-size: 13px;&quot;&gt;&lt;b style=&quot;font-size: 13px;&quot;&gt;&lt;span lang=&quot;EN-US&quot; style=&quot;font-size: 13px;&quot;&gt;Motor (Pump)&lt;/span&gt;&lt;/b&gt;&lt;/p&gt;" style="rounded=1;whiteSpace=wrap;html=1;fontFamily=Times New Roman;fontSize=13;" vertex="1" parent="1">
          <mxGeometry x="44" y="279" width="120" height="60" as="geometry" />
        </mxCell>
        <mxCell id="p4qgPqZC_pqW0kyotKTF-11" style="edgeStyle=orthogonalEdgeStyle;rounded=0;orthogonalLoop=1;jettySize=auto;html=1;entryX=0.5;entryY=0;entryDx=0;entryDy=0;fontFamily=Times New Roman;fontSize=13;" edge="1" parent="1" source="p4qgPqZC_pqW0kyotKTF-2" target="p4qgPqZC_pqW0kyotKTF-3">
          <mxGeometry relative="1" as="geometry" />
        </mxCell>
        <mxCell id="p4qgPqZC_pqW0kyotKTF-2" value="&lt;p align=&quot;center&quot; class=&quot;MsoNormal&quot; style=&quot;font-size: 13px;&quot;&gt;&lt;b style=&quot;font-size: 13px;&quot;&gt;&lt;span lang=&quot;EN-US&quot; style=&quot;font-size: 13px;&quot;&gt;Inflatable Cuff&lt;/span&gt;&lt;/b&gt;&lt;/p&gt;" style="rounded=1;whiteSpace=wrap;html=1;fontFamily=Times New Roman;fontSize=13;" vertex="1" parent="1">
          <mxGeometry x="44" y="390" width="120" height="60" as="geometry" />
        </mxCell>
        <mxCell id="p4qgPqZC_pqW0kyotKTF-12" value="" style="edgeStyle=orthogonalEdgeStyle;rounded=0;orthogonalLoop=1;jettySize=auto;html=1;fontFamily=Times New Roman;fontSize=13;" edge="1" parent="1" source="p4qgPqZC_pqW0kyotKTF-3" target="p4qgPqZC_pqW0kyotKTF-4">
          <mxGeometry relative="1" as="geometry" />
        </mxCell>
        <mxCell id="p4qgPqZC_pqW0kyotKTF-3" value="&lt;p align=&quot;center&quot; class=&quot;MsoNormal&quot; style=&quot;font-size: 13px;&quot;&gt;&lt;b style=&quot;font-size: 13px;&quot;&gt;&lt;span lang=&quot;EN-US&quot; style=&quot;font-size: 13px;&quot;&gt;Pressure Sensor&lt;/span&gt;&lt;/b&gt;&lt;/p&gt;" style="rounded=1;whiteSpace=wrap;html=1;fontFamily=Times New Roman;fontSize=13;" vertex="1" parent="1">
          <mxGeometry x="44" y="500" width="120" height="60" as="geometry" />
        </mxCell>
        <mxCell id="p4qgPqZC_pqW0kyotKTF-13" value="" style="edgeStyle=orthogonalEdgeStyle;rounded=0;orthogonalLoop=1;jettySize=auto;html=1;fontFamily=Times New Roman;fontSize=13;" edge="1" parent="1" source="p4qgPqZC_pqW0kyotKTF-4" target="p4qgPqZC_pqW0kyotKTF-5">
          <mxGeometry relative="1" as="geometry" />
        </mxCell>
        <mxCell id="p4qgPqZC_pqW0kyotKTF-4" value="&lt;p align=&quot;center&quot; class=&quot;MsoNormal&quot; style=&quot;font-size: 13px;&quot;&gt;&lt;b style=&quot;font-size: 13px;&quot;&gt;&lt;span lang=&quot;EN-US&quot; style=&quot;font-size: 13px;&quot;&gt;Amplifier&lt;/span&gt;&lt;/b&gt;&lt;/p&gt;" style="rounded=1;whiteSpace=wrap;html=1;fontFamily=Times New Roman;fontSize=13;" vertex="1" parent="1">
          <mxGeometry x="210" y="500" width="120" height="60" as="geometry" />
        </mxCell>
        <mxCell id="p4qgPqZC_pqW0kyotKTF-14" style="edgeStyle=orthogonalEdgeStyle;rounded=0;orthogonalLoop=1;jettySize=auto;html=1;entryX=0.5;entryY=1;entryDx=0;entryDy=0;fontFamily=Times New Roman;fontSize=13;" edge="1" parent="1" source="p4qgPqZC_pqW0kyotKTF-5" target="p4qgPqZC_pqW0kyotKTF-6">
          <mxGeometry relative="1" as="geometry">
            <mxPoint x="430" y="350" as="targetPoint" />
          </mxGeometry>
        </mxCell>
        <mxCell id="p4qgPqZC_pqW0kyotKTF-5" value="&lt;p align=&quot;center&quot; class=&quot;MsoNormal&quot; style=&quot;font-size: 13px;&quot;&gt;&lt;b style=&quot;font-size: 13px;&quot;&gt;&lt;span lang=&quot;EN-US&quot; style=&quot;font-size: 13px;&quot;&gt;Low pass filter&lt;/span&gt;&lt;/b&gt;&lt;/p&gt;" style="rounded=1;whiteSpace=wrap;html=1;fontFamily=Times New Roman;fontSize=13;" vertex="1" parent="1">
          <mxGeometry x="370" y="500" width="120" height="60" as="geometry" />
        </mxCell>
        <mxCell id="p4qgPqZC_pqW0kyotKTF-8" value="" style="edgeStyle=orthogonalEdgeStyle;rounded=0;orthogonalLoop=1;jettySize=auto;html=1;fontFamily=Times New Roman;fontSize=13;" edge="1" parent="1" source="p4qgPqZC_pqW0kyotKTF-6" target="p4qgPqZC_pqW0kyotKTF-7">
          <mxGeometry relative="1" as="geometry" />
        </mxCell>
        <mxCell id="p4qgPqZC_pqW0kyotKTF-9" style="edgeStyle=orthogonalEdgeStyle;rounded=0;orthogonalLoop=1;jettySize=auto;html=1;entryX=1;entryY=0.5;entryDx=0;entryDy=0;fontFamily=Times New Roman;fontSize=13;" edge="1" parent="1" source="p4qgPqZC_pqW0kyotKTF-6" target="p4qgPqZC_pqW0kyotKTF-1">
          <mxGeometry relative="1" as="geometry" />
        </mxCell>
        <mxCell id="p4qgPqZC_pqW0kyotKTF-6" value="&lt;b style=&quot;font-size: 13px;&quot;&gt;&lt;span style=&quot;font-size: 13px; line-height: 107%;&quot; lang=&quot;EN-US&quot;&gt;Microcontroller&lt;/span&gt;&lt;/b&gt;" style="rounded=1;whiteSpace=wrap;html=1;arcSize=0;fontFamily=Times New Roman;fontSize=13;" vertex="1" parent="1">
          <mxGeometry x="370" y="279" width="120" height="60" as="geometry" />
        </mxCell>
        <mxCell id="p4qgPqZC_pqW0kyotKTF-7" value="&lt;p align=&quot;center&quot; class=&quot;MsoNormal&quot; style=&quot;font-size: 13px;&quot;&gt;&lt;b style=&quot;font-size: 13px;&quot;&gt;&lt;span lang=&quot;EN-US&quot; style=&quot;font-size: 13px;&quot;&gt;LCD&lt;/span&gt;&lt;/b&gt;&lt;/p&gt;" style="rounded=1;whiteSpace=wrap;html=1;arcSize=18;fontFamily=Times New Roman;fontSize=13;" vertex="1" parent="1">
          <mxGeometry x="370" y="160" width="120" height="60" as="geometry" />
        </mxCell>
        <mxCell id="p4qgPqZC_pqW0kyotKTF-21" value="" style="shape=or;whiteSpace=wrap;html=1;direction=south;" vertex="1" parent="1">
          <mxGeometry x="233.75" y="720" width="22.5" height="10" as="geometry" />
        </mxCell>
        <mxCell id="p4qgPqZC_pqW0kyotKTF-22" value="1 Output" style="text;strokeColor=none;align=center;fillColor=none;html=1;verticalAlign=middle;whiteSpace=wrap;rounded=0;fontSize=8;" vertex="1" parent="1">
          <mxGeometry x="200" y="740" width="40" height="20" as="geometry" />
        </mxCell>
        <mxCell id="p4qgPqZC_pqW0kyotKTF-23" value="2 Input (+)" style="text;strokeColor=none;align=center;fillColor=none;html=1;verticalAlign=middle;whiteSpace=wrap;rounded=0;fontSize=8;spacingLeft=-3;" vertex="1" parent="1">
          <mxGeometry x="200" y="770" width="50" height="20" as="geometry" />
        </mxCell>
        <mxCell id="p4qgPqZC_pqW0kyotKTF-24" value="3 Output (+)" style="text;strokeColor=none;align=center;fillColor=none;html=1;verticalAlign=middle;whiteSpace=wrap;rounded=0;fontSize=8;spacingLeft=4;" vertex="1" parent="1">
          <mxGeometry x="200" y="800" width="50" height="20" as="geometry" />
        </mxCell>
        <mxCell id="p4qgPqZC_pqW0kyotKTF-27" value="Output (-) 6" style="text;strokeColor=none;align=center;fillColor=none;html=1;verticalAlign=middle;whiteSpace=wrap;rounded=0;fontSize=8;spacingRight=-2;" vertex="1" parent="1">
          <mxGeometry x="239" y="740" width="50" height="20" as="geometry" />
        </mxCell>
        <mxCell id="p4qgPqZC_pqW0kyotKTF-28" value="Input (-) 5" style="text;strokeColor=none;align=center;fillColor=none;html=1;verticalAlign=middle;whiteSpace=wrap;rounded=0;fontSize=8;spacingRight=3;fontStyle=0" vertex="1" parent="1">
          <mxGeometry x="249" y="770" width="40" height="20" as="geometry" />
        </mxCell>
        <mxCell id="p4qgPqZC_pqW0kyotKTF-29" value="4" style="text;strokeColor=none;align=right;fillColor=none;html=1;verticalAlign=middle;whiteSpace=wrap;rounded=0;fontSize=8;spacingRight=3;spacingLeft=0;" vertex="1" parent="1">
          <mxGeometry x="249" y="800" width="40" height="20" as="geometry" />
        </mxCell>
        <mxCell id="p4qgPqZC_pqW0kyotKTF-33" value="" style="endArrow=none;html=1;rounded=0;entryX=0;entryY=0.5;entryDx=0;entryDy=0;" edge="1" parent="1" target="p4qgPqZC_pqW0kyotKTF-22">
          <mxGeometry width="50" height="50" relative="1" as="geometry">
            <mxPoint x="180" y="750" as="sourcePoint" />
            <mxPoint x="220" y="730" as="targetPoint" />
          </mxGeometry>
        </mxCell>
        <mxCell id="p4qgPqZC_pqW0kyotKTF-34" value="" style="endArrow=none;html=1;rounded=0;" edge="1" parent="1">
          <mxGeometry width="50" height="50" relative="1" as="geometry">
            <mxPoint x="180" y="750" as="sourcePoint" />
            <mxPoint x="180" y="700" as="targetPoint" />
          </mxGeometry>
        </mxCell>
        <mxCell id="p4qgPqZC_pqW0kyotKTF-35" value="" style="endArrow=none;html=1;rounded=0;" edge="1" parent="1">
          <mxGeometry width="50" height="50" relative="1" as="geometry">
            <mxPoint x="310" y="700" as="sourcePoint" />
            <mxPoint x="180" y="700" as="targetPoint" />
          </mxGeometry>
        </mxCell>
        <mxCell id="p4qgPqZC_pqW0kyotKTF-36" value="" style="endArrow=none;html=1;rounded=0;" edge="1" parent="1">
          <mxGeometry width="50" height="50" relative="1" as="geometry">
            <mxPoint x="310" y="750" as="sourcePoint" />
            <mxPoint x="310" y="700" as="targetPoint" />
          </mxGeometry>
        </mxCell>
        <mxCell id="p4qgPqZC_pqW0kyotKTF-37" value="" style="endArrow=none;html=1;rounded=0;exitX=0.25;exitY=0;exitDx=0;exitDy=0;" edge="1" parent="1" source="p4qgPqZC_pqW0kyotKTF-17">
          <mxGeometry width="50" height="50" relative="1" as="geometry">
            <mxPoint x="220" y="780" as="sourcePoint" />
            <mxPoint x="310" y="750" as="targetPoint" />
          </mxGeometry>
        </mxCell>
        <mxCell id="p4qgPqZC_pqW0kyotKTF-38" value="" style="endArrow=none;html=1;rounded=0;entryX=0;entryY=0.5;entryDx=0;entryDy=0;" edge="1" parent="1" target="p4qgPqZC_pqW0kyotKTF-23">
          <mxGeometry width="50" height="50" relative="1" as="geometry">
            <mxPoint x="160" y="780" as="sourcePoint" />
            <mxPoint x="270" y="730" as="targetPoint" />
          </mxGeometry>
        </mxCell>
        <mxCell id="p4qgPqZC_pqW0kyotKTF-39" value="" style="endArrow=none;html=1;rounded=0;" edge="1" parent="1">
          <mxGeometry width="50" height="50" relative="1" as="geometry">
            <mxPoint x="160" y="680" as="sourcePoint" />
            <mxPoint x="160" y="780" as="targetPoint" />
          </mxGeometry>
        </mxCell>
        <mxCell id="p4qgPqZC_pqW0kyotKTF-41" value="" style="pointerEvents=1;verticalLabelPosition=bottom;shadow=0;dashed=0;align=center;html=1;verticalAlign=top;shape=mxgraph.electrical.capacitors.capacitor_1;direction=south;" vertex="1" parent="1">
          <mxGeometry x="110" y="680" width="20" height="50" as="geometry" />
        </mxCell>
        <mxCell id="p4qgPqZC_pqW0kyotKTF-42" value="&lt;font style=&quot;font-size: 11px;&quot;&gt;+5V&lt;/font&gt;" style="verticalLabelPosition=top;verticalAlign=bottom;shape=mxgraph.electrical.signal_sources.vdd;shadow=0;dashed=0;align=center;strokeWidth=1;fontSize=24;html=1;flipV=1;" vertex="1" parent="1">
          <mxGeometry x="150" y="650" width="20" height="30" as="geometry" />
        </mxCell>
        <mxCell id="p4qgPqZC_pqW0kyotKTF-43" value="Cảm biến áp suất" style="text;strokeColor=none;align=center;fillColor=none;html=1;verticalAlign=middle;whiteSpace=wrap;rounded=0;fontSize=8;" vertex="1" parent="1">
          <mxGeometry x="208.13" y="700" width="73.75" height="20" as="geometry" />
        </mxCell>
        <mxCell id="p4qgPqZC_pqW0kyotKTF-47" value="" style="endArrow=none;html=1;rounded=0;entryX=0.5;entryY=0;entryDx=0;entryDy=0;entryPerimeter=0;" edge="1" parent="1" target="p4qgPqZC_pqW0kyotKTF-42">
          <mxGeometry width="50" height="50" relative="1" as="geometry">
            <mxPoint x="120" y="680" as="sourcePoint" />
            <mxPoint x="120" y="730" as="targetPoint" />
          </mxGeometry>
        </mxCell>
        <mxCell id="p4qgPqZC_pqW0kyotKTF-49" value="" style="pointerEvents=1;verticalLabelPosition=bottom;shadow=0;dashed=0;align=center;html=1;verticalAlign=top;shape=mxgraph.electrical.signal_sources.protective_earth;" vertex="1" parent="1">
          <mxGeometry x="107.5" y="730" width="25" height="20" as="geometry" />
        </mxCell>
        <mxCell id="p4qgPqZC_pqW0kyotKTF-50" value="GND" style="text;strokeColor=none;align=center;fillColor=none;html=1;verticalAlign=middle;whiteSpace=wrap;rounded=0;fontSize=8;" vertex="1" parent="1">
          <mxGeometry x="108.13" y="750" width="23.75" height="20" as="geometry" />
        </mxCell>
        <mxCell id="p4qgPqZC_pqW0kyotKTF-51" value="" style="endArrow=none;html=1;rounded=0;entryX=0;entryY=0.5;entryDx=0;entryDy=0;" edge="1" parent="1">
          <mxGeometry width="50" height="50" relative="1" as="geometry">
            <mxPoint x="180" y="810" as="sourcePoint" />
            <mxPoint x="200" y="809.62" as="targetPoint" />
          </mxGeometry>
        </mxCell>
        <mxCell id="p4qgPqZC_pqW0kyotKTF-52" value="" style="endArrow=none;html=1;rounded=0;" edge="1" parent="1">
          <mxGeometry width="50" height="50" relative="1" as="geometry">
            <mxPoint x="180" y="860" as="sourcePoint" />
            <mxPoint x="180" y="810" as="targetPoint" />
          </mxGeometry>
        </mxCell>
        <mxCell id="p4qgPqZC_pqW0kyotKTF-53" value="" style="endArrow=none;html=1;rounded=0;" edge="1" parent="1">
          <mxGeometry width="50" height="50" relative="1" as="geometry">
            <mxPoint x="380" y="860" as="sourcePoint" />
            <mxPoint x="180" y="860" as="targetPoint" />
          </mxGeometry>
        </mxCell>
        <mxCell id="p4qgPqZC_pqW0kyotKTF-56" value="" style="endArrow=none;html=1;rounded=0;exitX=0.25;exitY=0;exitDx=0;exitDy=0;" edge="1" parent="1">
          <mxGeometry width="50" height="50" relative="1" as="geometry">
            <mxPoint x="290" y="779.83" as="sourcePoint" />
            <mxPoint x="340" y="780" as="targetPoint" />
          </mxGeometry>
        </mxCell>
        <mxCell id="p4qgPqZC_pqW0kyotKTF-57" value="" style="endArrow=none;html=1;rounded=0;exitX=0.25;exitY=0;exitDx=0;exitDy=0;" edge="1" parent="1">
          <mxGeometry width="50" height="50" relative="1" as="geometry">
            <mxPoint x="290" y="809.83" as="sourcePoint" />
            <mxPoint x="310" y="809.83" as="targetPoint" />
          </mxGeometry>
        </mxCell>
        <mxCell id="p4qgPqZC_pqW0kyotKTF-59" value="" style="endArrow=none;html=1;rounded=0;exitX=0.5;exitY=0;exitDx=0;exitDy=0;exitPerimeter=0;" edge="1" parent="1" source="p4qgPqZC_pqW0kyotKTF-61">
          <mxGeometry width="50" height="50" relative="1" as="geometry">
            <mxPoint x="340" y="900" as="sourcePoint" />
            <mxPoint x="340" y="780" as="targetPoint" />
          </mxGeometry>
        </mxCell>
        <mxCell id="p4qgPqZC_pqW0kyotKTF-61" value="" style="pointerEvents=1;verticalLabelPosition=bottom;shadow=0;dashed=0;align=center;html=1;verticalAlign=top;shape=mxgraph.electrical.signal_sources.protective_earth;" vertex="1" parent="1">
          <mxGeometry x="328.25" y="810" width="23" height="20" as="geometry" />
        </mxCell>
        <mxCell id="p4qgPqZC_pqW0kyotKTF-62" value="GND" style="text;strokeColor=none;align=center;fillColor=none;html=1;verticalAlign=middle;whiteSpace=wrap;rounded=0;fontSize=8;" vertex="1" parent="1">
          <mxGeometry x="327.5" y="830" width="23.75" height="20" as="geometry" />
        </mxCell>
        <mxCell id="p4qgPqZC_pqW0kyotKTF-64" value="" style="endArrow=none;html=1;rounded=0;" edge="1" parent="1">
          <mxGeometry width="50" height="50" relative="1" as="geometry">
            <mxPoint x="380" y="860" as="sourcePoint" />
            <mxPoint x="380" y="780" as="targetPoint" />
          </mxGeometry>
        </mxCell>
        <mxCell id="p4qgPqZC_pqW0kyotKTF-68" value="IC khuếch đại" style="text;strokeColor=none;align=center;fillColor=none;html=1;verticalAlign=middle;whiteSpace=wrap;rounded=0;fontSize=8;" vertex="1" parent="1">
          <mxGeometry x="438.12" y="685" width="73.75" height="20" as="geometry" />
        </mxCell>
        <mxCell id="p4qgPqZC_pqW0kyotKTF-71" value="" style="group" vertex="1" connectable="0" parent="1">
          <mxGeometry x="419.98" y="710" width="114.6" height="120" as="geometry" />
        </mxCell>
        <mxCell id="p4qgPqZC_pqW0kyotKTF-66" value="" style="rounded=0;whiteSpace=wrap;html=1;direction=south;" vertex="1" parent="p4qgPqZC_pqW0kyotKTF-71">
          <mxGeometry y="-5" width="114.6" height="125" as="geometry" />
        </mxCell>
        <mxCell id="p4qgPqZC_pqW0kyotKTF-67" value="" style="shape=or;whiteSpace=wrap;html=1;direction=south;" vertex="1" parent="p4qgPqZC_pqW0kyotKTF-71">
          <mxGeometry x="41.2575" y="-5" width="27.505" height="10" as="geometry" />
        </mxCell>
        <mxCell id="p4qgPqZC_pqW0kyotKTF-70" value="" style="triangle;whiteSpace=wrap;html=1;" vertex="1" parent="p4qgPqZC_pqW0kyotKTF-71">
          <mxGeometry x="33.62944666666667" y="20" width="51.94166444444445" height="70" as="geometry" />
        </mxCell>
        <mxCell id="p4qgPqZC_pqW0kyotKTF-65" value="" style="endArrow=none;html=1;rounded=0;entryX=0;entryY=0.296;entryDx=0;entryDy=0;entryPerimeter=0;" edge="1" parent="p4qgPqZC_pqW0kyotKTF-71">
          <mxGeometry width="50" height="50" relative="1" as="geometry">
            <mxPoint x="-39.98000000000002" y="70" as="sourcePoint" />
            <mxPoint x="33.617222222222225" y="70.02000000000021" as="targetPoint" />
          </mxGeometry>
        </mxCell>
        <mxCell id="p4qgPqZC_pqW0kyotKTF-73" value="&lt;font style=&quot;font-size: 14px;&quot;&gt;-&lt;/font&gt;" style="text;strokeColor=none;align=center;fillColor=none;html=1;verticalAlign=middle;whiteSpace=wrap;rounded=0;fontSize=14;strokeWidth=1;" vertex="1" parent="p4qgPqZC_pqW0kyotKTF-71">
          <mxGeometry x="33.62944666666667" y="29" width="15.268331111111111" height="20" as="geometry" />
        </mxCell>
        <mxCell id="p4qgPqZC_pqW0kyotKTF-74" value="&lt;font style=&quot;font-size: 11px;&quot;&gt;+&lt;/font&gt;" style="text;strokeColor=none;align=center;fillColor=none;html=1;verticalAlign=middle;whiteSpace=wrap;rounded=0;fontSize=11;" vertex="1" parent="p4qgPqZC_pqW0kyotKTF-71">
          <mxGeometry x="33.62944666666665" y="60" width="15.268331111111111" height="20" as="geometry" />
        </mxCell>
        <mxCell id="p4qgPqZC_pqW0kyotKTF-75" value="" style="endArrow=none;html=1;rounded=0;exitX=1;exitY=0.5;exitDx=0;exitDy=0;" edge="1" parent="p4qgPqZC_pqW0kyotKTF-71" source="p4qgPqZC_pqW0kyotKTF-70">
          <mxGeometry width="50" height="50" relative="1" as="geometry">
            <mxPoint x="88.57111111111112" y="55" as="sourcePoint" />
            <mxPoint x="100.80778" y="55" as="targetPoint" />
          </mxGeometry>
        </mxCell>
        <mxCell id="p4qgPqZC_pqW0kyotKTF-76" value="1 RG" style="text;strokeColor=none;align=left;fillColor=none;html=1;verticalAlign=middle;whiteSpace=wrap;rounded=0;fontSize=8;spacingRight=-2;" vertex="1" parent="p4qgPqZC_pqW0kyotKTF-71">
          <mxGeometry x="3" y="6" width="21.1" height="20" as="geometry" />
        </mxCell>
        <mxCell id="p4qgPqZC_pqW0kyotKTF-78" value="2" style="text;strokeColor=none;align=left;fillColor=none;html=1;verticalAlign=middle;whiteSpace=wrap;rounded=0;fontSize=8;spacingRight=-2;" vertex="1" parent="p4qgPqZC_pqW0kyotKTF-71">
          <mxGeometry x="3" y="35" width="21.1" height="20" as="geometry" />
        </mxCell>
        <mxCell id="p4qgPqZC_pqW0kyotKTF-79" value="3" style="text;strokeColor=none;align=left;fillColor=none;html=1;verticalAlign=middle;whiteSpace=wrap;rounded=0;fontSize=8;spacingRight=-2;" vertex="1" parent="p4qgPqZC_pqW0kyotKTF-71">
          <mxGeometry x="3" y="66" width="21.1" height="20" as="geometry" />
        </mxCell>
        <mxCell id="p4qgPqZC_pqW0kyotKTF-80" value="4" style="text;strokeColor=none;align=left;fillColor=none;html=1;verticalAlign=middle;whiteSpace=wrap;rounded=0;fontSize=8;spacingRight=-2;" vertex="1" parent="p4qgPqZC_pqW0kyotKTF-71">
          <mxGeometry x="3" y="90" width="21.1" height="20" as="geometry" />
        </mxCell>
        <mxCell id="p4qgPqZC_pqW0kyotKTF-85" value="6" style="text;strokeColor=none;align=right;fillColor=none;html=1;verticalAlign=middle;whiteSpace=wrap;rounded=0;fontSize=8;spacingRight=-2;" vertex="1" parent="p4qgPqZC_pqW0kyotKTF-71">
          <mxGeometry x="86.57" y="65" width="21.1" height="20" as="geometry" />
        </mxCell>
        <mxCell id="p4qgPqZC_pqW0kyotKTF-126" value="" style="endArrow=none;html=1;rounded=0;" edge="1" parent="p4qgPqZC_pqW0kyotKTF-71">
          <mxGeometry width="50" height="50" relative="1" as="geometry">
            <mxPoint x="100.01999999999998" y="70" as="sourcePoint" />
            <mxPoint x="100.08999999999992" y="55" as="targetPoint" />
          </mxGeometry>
        </mxCell>
        <mxCell id="p4qgPqZC_pqW0kyotKTF-72" value="" style="endArrow=none;html=1;rounded=0;exitX=0.25;exitY=0;exitDx=0;exitDy=0;entryX=0;entryY=0.5;entryDx=0;entryDy=0;" edge="1" parent="1" target="p4qgPqZC_pqW0kyotKTF-73">
          <mxGeometry width="50" height="50" relative="1" as="geometry">
            <mxPoint x="310" y="750.0000000000001" as="sourcePoint" />
            <mxPoint x="450" y="750" as="targetPoint" />
          </mxGeometry>
        </mxCell>
        <mxCell id="p4qgPqZC_pqW0kyotKTF-86" value="7" style="text;strokeColor=none;align=right;fillColor=none;html=1;verticalAlign=middle;whiteSpace=wrap;rounded=0;fontSize=8;spacingRight=-2;" vertex="1" parent="1">
          <mxGeometry x="508" y="739" width="21.1" height="20" as="geometry" />
        </mxCell>
        <mxCell id="p4qgPqZC_pqW0kyotKTF-88" value="5" style="text;strokeColor=none;align=right;fillColor=none;html=1;verticalAlign=middle;whiteSpace=wrap;rounded=0;fontSize=8;spacingRight=-2;" vertex="1" parent="1">
          <mxGeometry x="508" y="800" width="21.1" height="20" as="geometry" />
        </mxCell>
        <mxCell id="p4qgPqZC_pqW0kyotKTF-87" value="RG 8" style="text;strokeColor=none;align=right;fillColor=none;html=1;verticalAlign=middle;whiteSpace=wrap;rounded=0;fontSize=8;spacingRight=-2;" vertex="1" parent="1">
          <mxGeometry x="508" y="716" width="21.1" height="20" as="geometry" />
        </mxCell>
        <mxCell id="p4qgPqZC_pqW0kyotKTF-89" value="" style="endArrow=none;html=1;rounded=0;" edge="1" parent="1">
          <mxGeometry width="50" height="50" relative="1" as="geometry">
            <mxPoint x="400" y="880" as="sourcePoint" />
            <mxPoint x="400" y="810" as="targetPoint" />
          </mxGeometry>
        </mxCell>
        <mxCell id="p4qgPqZC_pqW0kyotKTF-90" value="" style="endArrow=none;html=1;rounded=0;" edge="1" parent="1">
          <mxGeometry width="50" height="50" relative="1" as="geometry">
            <mxPoint x="400" y="810" as="sourcePoint" />
            <mxPoint x="420" y="810" as="targetPoint" />
          </mxGeometry>
        </mxCell>
        <mxCell id="p4qgPqZC_pqW0kyotKTF-91" value="" style="verticalLabelPosition=top;verticalAlign=bottom;shape=mxgraph.electrical.signal_sources.vdd;shadow=0;dashed=0;align=center;strokeWidth=1;fontSize=24;html=1;flipV=1;direction=west;" vertex="1" parent="1">
          <mxGeometry x="390" y="880" width="20" height="30" as="geometry" />
        </mxCell>
        <mxCell id="p4qgPqZC_pqW0kyotKTF-95" value="-5V" style="text;strokeColor=none;align=center;fillColor=none;html=1;verticalAlign=middle;whiteSpace=wrap;rounded=0;fontSize=13;" vertex="1" parent="1">
          <mxGeometry x="386.25" y="913" width="23.75" height="20" as="geometry" />
        </mxCell>
        <mxCell id="p4qgPqZC_pqW0kyotKTF-97" value="" style="endArrow=none;html=1;rounded=0;" edge="1" parent="1">
          <mxGeometry width="50" height="50" relative="1" as="geometry">
            <mxPoint x="399.98" y="725.87" as="sourcePoint" />
            <mxPoint x="419.98" y="725.87" as="targetPoint" />
          </mxGeometry>
        </mxCell>
        <mxCell id="p4qgPqZC_pqW0kyotKTF-98" value="" style="endArrow=none;html=1;rounded=0;" edge="1" parent="1">
          <mxGeometry width="50" height="50" relative="1" as="geometry">
            <mxPoint x="399.87" y="726" as="sourcePoint" />
            <mxPoint x="400" y="680" as="targetPoint" />
          </mxGeometry>
        </mxCell>
        <mxCell id="p4qgPqZC_pqW0kyotKTF-99" value="" style="endArrow=none;html=1;rounded=0;exitX=0.25;exitY=0;exitDx=0;exitDy=0;" edge="1" parent="1">
          <mxGeometry width="50" height="50" relative="1" as="geometry">
            <mxPoint x="399.9977777777778" y="680.0000000000001" as="sourcePoint" />
            <mxPoint x="450" y="680" as="targetPoint" />
          </mxGeometry>
        </mxCell>
        <mxCell id="p4qgPqZC_pqW0kyotKTF-100" value="" style="pointerEvents=1;verticalLabelPosition=bottom;shadow=0;dashed=0;align=center;html=1;verticalAlign=top;shape=mxgraph.electrical.resistors.resistor_2;" vertex="1" parent="1">
          <mxGeometry x="449.99" y="675" width="50" height="10" as="geometry" />
        </mxCell>
        <mxCell id="p4qgPqZC_pqW0kyotKTF-101" value="" style="endArrow=none;html=1;rounded=0;exitX=0.25;exitY=0;exitDx=0;exitDy=0;" edge="1" parent="1">
          <mxGeometry width="50" height="50" relative="1" as="geometry">
            <mxPoint x="499.9877777777778" y="680.0000000000001" as="sourcePoint" />
            <mxPoint x="560" y="680" as="targetPoint" />
          </mxGeometry>
        </mxCell>
        <mxCell id="p4qgPqZC_pqW0kyotKTF-102" value="" style="endArrow=none;html=1;rounded=0;" edge="1" parent="1">
          <mxGeometry width="50" height="50" relative="1" as="geometry">
            <mxPoint x="560" y="730" as="sourcePoint" />
            <mxPoint x="560" y="680" as="targetPoint" />
          </mxGeometry>
        </mxCell>
        <mxCell id="p4qgPqZC_pqW0kyotKTF-103" value="" style="endArrow=none;html=1;rounded=0;exitX=0.199;exitY=0.004;exitDx=0;exitDy=0;exitPerimeter=0;" edge="1" parent="1" source="p4qgPqZC_pqW0kyotKTF-66">
          <mxGeometry width="50" height="50" relative="1" as="geometry">
            <mxPoint x="540" y="729" as="sourcePoint" />
            <mxPoint x="560" y="730" as="targetPoint" />
          </mxGeometry>
        </mxCell>
        <mxCell id="p4qgPqZC_pqW0kyotKTF-106" value="" style="endArrow=none;html=1;rounded=0;exitX=0.199;exitY=0.004;exitDx=0;exitDy=0;exitPerimeter=0;" edge="1" parent="1">
          <mxGeometry width="50" height="50" relative="1" as="geometry">
            <mxPoint x="534.46" y="748.99" as="sourcePoint" />
            <mxPoint x="580" y="749" as="targetPoint" />
          </mxGeometry>
        </mxCell>
        <mxCell id="p4qgPqZC_pqW0kyotKTF-108" value="" style="endArrow=none;html=1;rounded=0;" edge="1" parent="1">
          <mxGeometry width="50" height="50" relative="1" as="geometry">
            <mxPoint x="580" y="750" as="sourcePoint" />
            <mxPoint x="580" y="660" as="targetPoint" />
          </mxGeometry>
        </mxCell>
        <mxCell id="p4qgPqZC_pqW0kyotKTF-111" value="&lt;font style=&quot;font-size: 11px;&quot;&gt;+5V&lt;/font&gt;" style="verticalLabelPosition=top;verticalAlign=bottom;shape=mxgraph.electrical.signal_sources.vdd;shadow=0;dashed=0;align=center;strokeWidth=1;fontSize=24;html=1;flipV=1;" vertex="1" parent="1">
          <mxGeometry x="570" y="650" width="20" height="30" as="geometry" />
        </mxCell>
        <mxCell id="p4qgPqZC_pqW0kyotKTF-112" value="" style="ellipse;whiteSpace=wrap;html=1;aspect=fixed;" vertex="1" parent="1">
          <mxGeometry x="300" y="880" as="geometry" />
        </mxCell>
        <mxCell id="p4qgPqZC_pqW0kyotKTF-113" value="" style="ellipse;whiteSpace=wrap;html=1;aspect=fixed;labelBackgroundColor=#000000;labelBorderColor=default;" vertex="1" parent="1">
          <mxGeometry x="307" y="747" width="5" height="5" as="geometry" />
        </mxCell>
        <mxCell id="p4qgPqZC_pqW0kyotKTF-114" value="" style="endArrow=none;html=1;rounded=0;exitX=0.199;exitY=0.004;exitDx=0;exitDy=0;exitPerimeter=0;" edge="1" parent="1">
          <mxGeometry width="50" height="50" relative="1" as="geometry">
            <mxPoint x="534.46" y="779.97" as="sourcePoint" />
            <mxPoint x="560.46" y="779.97" as="targetPoint" />
          </mxGeometry>
        </mxCell>
        <mxCell id="p4qgPqZC_pqW0kyotKTF-115" value="" style="ellipse;whiteSpace=wrap;html=1;aspect=fixed;labelBackgroundColor=#000000;labelBorderColor=default;" vertex="1" parent="1">
          <mxGeometry x="560" y="777.5" width="5" height="5" as="geometry" />
        </mxCell>
        <mxCell id="p4qgPqZC_pqW0kyotKTF-117" value="" style="endArrow=none;html=1;rounded=0;exitX=0.199;exitY=0.004;exitDx=0;exitDy=0;exitPerimeter=0;" edge="1" parent="1">
          <mxGeometry width="50" height="50" relative="1" as="geometry">
            <mxPoint x="534.58" y="810" as="sourcePoint" />
            <mxPoint x="560.58" y="810" as="targetPoint" />
          </mxGeometry>
        </mxCell>
        <mxCell id="p4qgPqZC_pqW0kyotKTF-118" value="+ Vs" style="text;strokeColor=none;align=right;fillColor=none;html=1;verticalAlign=middle;whiteSpace=wrap;rounded=0;fontSize=8;spacingRight=-2;" vertex="1" parent="1">
          <mxGeometry x="534.58" y="747" width="21.1" height="20" as="geometry" />
        </mxCell>
        <mxCell id="p4qgPqZC_pqW0kyotKTF-119" value="OUT" style="text;strokeColor=none;align=right;fillColor=none;html=1;verticalAlign=middle;whiteSpace=wrap;rounded=0;fontSize=8;spacingRight=-2;" vertex="1" parent="1">
          <mxGeometry x="534.58" y="777.5" width="21.1" height="20" as="geometry" />
        </mxCell>
        <mxCell id="p4qgPqZC_pqW0kyotKTF-120" value="REF" style="text;strokeColor=none;align=right;fillColor=none;html=1;verticalAlign=middle;whiteSpace=wrap;rounded=0;fontSize=8;spacingRight=-2;" vertex="1" parent="1">
          <mxGeometry x="534.58" y="810" width="21.1" height="20" as="geometry" />
        </mxCell>
        <mxCell id="p4qgPqZC_pqW0kyotKTF-121" value="AD620A" style="text;strokeColor=none;align=right;fillColor=none;html=1;verticalAlign=middle;whiteSpace=wrap;rounded=0;fontSize=8;spacingRight=-2;" vertex="1" parent="1">
          <mxGeometry x="459.99" y="830" width="30" height="20" as="geometry" />
        </mxCell>
        <mxCell id="p4qgPqZC_pqW0kyotKTF-122" value="10nF" style="text;strokeColor=none;align=center;fillColor=none;html=1;verticalAlign=middle;whiteSpace=wrap;rounded=0;fontSize=10;" vertex="1" parent="1">
          <mxGeometry x="80" y="695" width="23.75" height="20" as="geometry" />
        </mxCell>
        <mxCell id="p4qgPqZC_pqW0kyotKTF-123" value="R = 750 Ω&amp;nbsp;" style="text;strokeColor=none;align=center;fillColor=none;html=1;verticalAlign=middle;whiteSpace=wrap;rounded=0;fontSize=10;" vertex="1" parent="1">
          <mxGeometry x="448.84000000000003" y="650" width="56.88" height="20" as="geometry" />
        </mxCell>
        <mxCell id="p4qgPqZC_pqW0kyotKTF-124" value="" style="endArrow=none;html=1;rounded=0;entryX=0.601;entryY=0.003;entryDx=0;entryDy=0;entryPerimeter=0;exitX=0.637;exitY=0.25;exitDx=0;exitDy=0;exitPerimeter=0;" edge="1" parent="1" source="p4qgPqZC_pqW0kyotKTF-85">
          <mxGeometry width="50" height="50" relative="1" as="geometry">
            <mxPoint x="520" y="780" as="sourcePoint" />
            <mxPoint x="534.2362" y="780.125" as="targetPoint" />
          </mxGeometry>
        </mxCell>
      </root>
    </mxGraphModel>
  </diagram>
</mxfile>
